#!OML:ASF H:\GeneralSubjects\Female5\Project 1\Capture day 1\Session 1\Female5.ASF
:FULLY-SPECIFIED
:DEGREES
1
root -10.3884 15.8328 2.9563 154.821 -82.172 -145.74
lowerback 6.18299 3.07674 2.30134
upperback -10.268 4.44437 2.20178
thorax -14.8107 1.85908 0.368939
lowerneck -18.6193 -0.925699 0.998753
upperneck 35.0845 -2.46258 -0.854598
head 15.4227 -1.39088 -1.09131
rclavicle 2.20651e-014 -9.14409e-015
rhumerus -46.8523 20.7176 -89.4023
rradius 32.0756
rwrist -13.7754
rhand -34.8296 -19.3477
rfingers 7.12502
rthumb -7.98036 -49.1771
lclavicle 2.20651e-014 -9.14409e-015
lhumerus -41.7654 24.3934 61.6123
lradius 43.6197
lwrist -8.75521
lhand -31.0681 32.7969
lfingers 7.12502
lthumb -4.3489 62.7323
rfemur 6.47484 13.1262 39.2403
rtibia -12.3213
rfoot -21.1138 -27.4831
rtoes -4.24091
lfemur -30.5145 -26.3667 -7.42377
ltibia 7.59845
lfoot -13.0389 14.8538
ltoes -58.0138
2
root -10.3945 15.8363 2.94942 155.325 -82.1478 -146.308
lowerback 6.20453 3.04215 2.17559
upperback -10.2451 4.3897 2.27589
thorax -14.8139 1.85298 0.530006
lowerneck -18.6773 -0.884415 1.01146
upperneck 35.1354 -2.3861 -0.916097
head 15.4606 -1.36616 -1.10782
rclavicle 1.96797e-014 -1.98785e-015
rhumerus -46.507 20.5852 -88.9976
rradius 31.8899
rwrist -12.2548
rhand -32.0914 -21.3999
rfingers 7.12502
rthumb -5.33698 -51.3127
lclavicle 1.96797e-014 -1.98785e-015
lhumerus -41.6413 21.8151 64.0564
lradius 40.3657
lwrist -10.2922
lhand -45.913 28.2835
lfingers 7.12502
lthumb -18.662 57.4083
rfemur 6.54455 13.1714 39.2461
rtibia -12.2758
rfoot -21.0631 -27.4166
rtoes -3.79227
lfemur -30.5037 -26.5749 -7.3279
ltibia 7.83774
lfoot -16.1588 12.871
ltoes -61.5613
3
root -10.3994 15.8386 2.94301 155.641 -82.1019 -146.652
lowerback 6.19987 3.03348 2.09942
upperback -10.2149 4.37346 2.32798
thorax -14.7853 1.85859 0.6334
lowerneck -18.7598 -0.882649 0.957495
upperneck 35.1451 -2.36644 -0.90633
head 15.4859 -1.36251 -1.09194
rclavicle -1.81391e-014 -9.54166e-015
rhumerus -46.2498 20.4311 -88.6961
rradius 31.8133
rwrist -11.2726
rhand -25.7432 -24.6073
rfingers 7.12502
rthumb 0.793769 -54.5856
lclavicle -1.81391e-014 -9.54166e-015
lhumerus -41.5893 18.6454 66.886
lradius 37.5923
lwrist -11.3805
lhand -56.2994 30.8956
lfingers 7.12502
lthumb -28.6223 58.7237
rfemur 6.58953 13.2358 39.2941
rtibia -12.2513
rfoot -21.066 -27.4096
rtoes -3.83519
lfemur -30.4953 -26.6939 -7.23904
ltibia 7.94785
lfoot -18.6969 12.6226
ltoes -64.5486
4
root -10.406 15.8405 2.93552 155.889 -82.0498 -146.916
lowerback 6.14252 3.02978 1.98004
upperback -10.1612 4.35991 2.41839
thorax -14.7015 1.87419 0.805365
lowerneck -18.8424 -0.874311 0.794137
upperneck 35.1166 -2.32223 -0.815509
head 15.4962 -1.35051 -1.01686
rclavicle 4.12478e-015 1.98785e-015
rhumerus -46.3553 20.946 -88.9493
rradius 32.0514
rwrist -12.2938
rhand -31.5573 -21.8684
rfingers 7.12502
rthumb -4.82129 -51.7936
lclavicle 4.12478e-015 1.98785e-015
lhumerus -41.5842 15.2467 70.0339
lradius 35.1537
lwrist -12.1629
lhand -63.377 42.5486
lfingers 7.12502
lthumb -35.3605 69.0197
rfemur 6.63458 13.3083 39.3697
rtibia -12.2242
rfoot -21.0275 -27.4384
rtoes -4.2175
lfemur -30.4488 -26.6367 -7.2383
ltibia 7.95595
lfoot -20.2543 14.4455
ltoes -67.2271
5
root -10.4149 15.8415 2.93024 156.008 -81.9967 -147.058
lowerback 6.10109 3.04552 1.99256
upperback -10.12 4.38507 2.45531
thorax -14.6278 1.88904 0.836879
lowerneck -18.98 -0.867051 0.649398
upperneck 35.1508 -2.29966 -0.700136
head 15.5497 -1.34139 -0.940757
rclavicle 1.0138e-014 -2.62396e-014
rhumerus -46.2956 21.0857 -88.8916
rradius 32.2359
rwrist -12.0902
rhand -31.4018 -22.4413
rfingers 7.12502
rthumb -4.67111 -52.3698
lclavicle 1.0138e-014 -2.62396e-014
lhumerus -41.8858 9.0352 75.5615
lradius 32.3474
lwrist -12.3245
lhand -50.1566 52.3209
lfingers 7.12502
lthumb -22.7394 81.0009
rfemur 6.70759 13.3683 39.4479
rtibia -12.2049
rfoot -21.1019 -27.4448
rtoes -4.3636
lfemur -30.3774 -26.4875 -7.29828
ltibia 7.99773
lfoot -25.6329 14.6376
ltoes -70.6081
6
root -10.4224 15.8412 2.92691 156.213 -81.9549 -147.27
lowerback 6.07407 3.03973 2.00178
upperback -10.111 4.37979 2.48748
thorax -14.602 1.888 0.869847
lowerneck -19.0529 -0.826069 0.573678
upperneck 35.193 -2.22506 -0.662047
head 15.5899 -1.31415 -0.899326
rclavicle -1.28216e-014 -2.18663e-014
rhumerus -45.9578 20.7448 -88.3629
rradius 32.206
rwrist -9.96792
rhand -26.2576 -25.3512
rfingers 7.12502
rthumb 0.296973 -55.3307
lclavicle -1.28216e-014 -2.18663e-014
lhumerus -43.0683 1.7611 82.0266
lradius 30.9662
lwrist -10.8638
lhand -47.5841 63.0523
lfingers 7.12502
lthumb -20.2687 -92.0147
rfemur 6.74924 13.4214 39.4818
rtibia -12.1755
rfoot -21.2316 -27.4766
rtoes -4.48527
lfemur -30.3481 -26.3537 -7.37106
ltibia 8.08383
lfoot -25.6004 14.3284
ltoes -70.5457
7
root -10.4284 15.8409 2.92277 156.864 -81.939 -147.915
lowerback 6.0572 3.0311 1.91925
upperback -10.1284 4.35708 2.50015
thorax -14.62 1.8865 0.934631
lowerneck -19.0067 -0.789643 0.580403
upperneck 35.1718 -2.17011 -0.667339
head 15.569 -1.29166 -0.891585
rclavicle -1.0635e-014 1.98785e-015
rhumerus -45.8296 20.7443 -88.2281
rradius 32.1924
rwrist -9.11498
rhand -23.7293 -26.208
rfingers 7.12502
rthumb 2.73884 -56.1702
lclavicle -1.0635e-014 1.98785e-015
lhumerus -43.127 1.82193 81.984
lradius 30.9366
lwrist -10.8961
lhand -46.2399 62.2888
lfingers 7.12502
lthumb -18.9764 -91.3832
rfemur 6.74554 13.4806 39.4337
rtibia -12.13
rfoot -21.2116 -27.4828
rtoes -4.4556
lfemur -30.3643 -26.2753 -7.473
ltibia 8.20573
lfoot -25.5909 14.1184
ltoes -70.4831
8
root -10.4354 15.8413 2.9196 157.551 -81.9488 -148.592
lowerback 6.03947 3.06022 1.93484
upperback -10.1477 4.39002 2.42653
thorax -14.6237 1.89486 0.839005
lowerneck -18.945 -0.834058 0.757872
upperneck 35.0831 -2.24037 -0.816314
head 15.5055 -1.31847 -0.995989
rclavicle -1.07344e-014 -3.57812e-015
rhumerus -45.8001 20.7192 -88.3195
rradius 32.2055
rwrist -9.27778
rhand -23.8514 -25.8553
rfingers 7.12502
rthumb 2.62083 -55.8189
lclavicle -1.07344e-014 -3.57812e-015
lhumerus -43.053 1.77419 81.9074
lradius 30.7901
lwrist -10.9785
lhand -44.8832 61.5002
lfingers 7.12502
lthumb -17.6712 -90.7172
rfemur 6.77204 13.5157 39.3617
rtibia -12.135
rfoot -21.2204 -27.402
rtoes -4.06022
lfemur -30.3411 -26.1694 -7.62563
ltibia 8.2749
lfoot -25.5364 13.9533
ltoes -70.4094
9
root -10.442 15.8411 2.915 157.407 -81.935 -148.434
lowerback 6.0281 3.09428 2.07669
upperback -10.1814 4.44649 2.36008
thorax -14.6398 1.90004 0.676898
lowerneck -18.8268 -0.900526 0.913494
upperneck 34.9808 -2.33433 -0.96887
head 15.4219 -1.35978 -1.10099
rclavicle 1.17283e-014 3.97569e-016
rhumerus -45.7812 20.5113 -88.3642
rradius 32.2333
rwrist -9.36525
rhand -23.8477 -25.8447
rfingers 7.12502
rthumb 2.62444 -55.8083
lclavicle 1.17283e-014 3.97569e-016
lhumerus -43.0463 1.67561 81.8197
lradius 30.7149
lwrist -11.2297
lhand -43.5057 60.6898
lfingers 7.12502
lthumb -16.3453 -90.021
rfemur 6.80869 13.5315 39.4297
rtibia -12.157
rfoot -21.2789 -27.3573
rtoes -3.85484
lfemur -30.3261 -25.9703 -7.66534
ltibia 8.33451
lfoot -25.4136 13.7869
ltoes -70.3988
10
root -10.4471 15.8393 2.90782 156.706 -81.8907 -147.695
lowerback 6.0191 3.08729 2.1784
upperback -10.2237 4.45198 2.39843
thorax -14.6814 1.89177 0.66265
lowerneck -18.8171 -0.88785 0.814066
upperneck 35.0159 -2.32632 -0.853064
head 15.4404 -1.35389 -1.03404
rclavicle -2.57426e-014 -1.86858e-014
rhumerus -45.8507 20.5698 -88.4514
rradius 32.3381
rwrist -9.5865
rhand -23.9486 -25.8335
rfingers 7.12502
rthumb 2.52702 -55.7983
lclavicle -2.57426e-014 -1.86858e-014
lhumerus -43.1808 1.58078 81.8521
lradius 30.695
lwrist -11.0879
lhand -42.3213 59.6351
lfingers 7.12502
lthumb -15.2047 89.0564
rfemur 6.79501 13.5563 39.6077
rtibia -12.1403
rfoot -21.3088 -27.4083
rtoes -4.04616
lfemur -30.4252 -25.7212 -7.57401
ltibia 8.51689
lfoot -25.2673 13.5052
ltoes -70.4167
11
root -10.4528 15.8377 2.90245 156.48 -81.8833 -147.44
lowerback 6.01213 3.08202 2.26366
upperback -10.2426 4.45546 2.40707
thorax -14.6939 1.88354 0.624832
lowerneck -19.013 -0.861411 0.58895
upperneck 35.1456 -2.30289 -0.605712
head 15.5576 -1.33671 -0.890977
rclavicle -1.799e-014 1.51076e-014
rhumerus -45.8903 20.6317 -88.5005
rradius 32.4607
rwrist -9.76056
rhand -24.0472 -25.8253
rfingers 7.12502
rthumb 2.43173 -55.7912
lclavicle -1.799e-014 1.51076e-014
lhumerus -43.2567 1.20854 82.0981
lradius 30.5896
lwrist -10.0344
lhand -17.0074 42.76
lfingers 7.12502
lthumb 9.22817 72.5381
rfemur 6.757 13.5624 39.6575
rtibia -12.0874
rfoot -21.2958 -27.393
rtoes -3.88708
lfemur -30.5085 -25.518 -7.57528
ltibia 8.67064
lfoot -25.1051 13.2556
ltoes -70.3162
12
root -10.4599 15.8376 2.89848 156.808 -81.9188 -147.777
lowerback 6.01217 3.07567 2.26275
upperback -10.239 4.4457 2.39731
thorax -14.6886 1.87855 0.616304
lowerneck -19.1115 -0.888834 0.465663
upperneck 35.1492 -2.31424 -0.555096
head 15.5851 -1.34893 -0.85114
rclavicle -1.03368e-014 -2.74323e-014
rhumerus -45.876 20.6194 -88.4831
rradius 32.5668
rwrist -9.80174
rhand -24.0372 -25.8842
rfingers 7.12502
rthumb 2.44145 -55.85
lclavicle -1.03368e-014 -2.74323e-014
lhumerus -43.2217 0.828984 82.3638
lradius 30.4176
lwrist -9.06868
lhand -27.883 33.6602
lfingers 7.12502
lthumb -1.27291 63.6361
rfemur 6.74879 13.5418 39.5713
rtibia -12.0383
rfoot -21.1733 -27.359
rtoes -3.77901
lfemur -30.4817 -25.4568 -7.69391
ltibia 8.71077
lfoot -25.0575 13.1981
ltoes -70.1445
13
root -10.4692 15.8369 2.89517 157.534 -81.9872 -148.519
lowerback 5.94731 3.05016 2.23105
upperback -10.2189 4.39765 2.34149
thorax -14.6188 1.85733 0.583921
lowerneck -19.0392 -0.928048 0.474527
upperneck 35.0336 -2.35835 -0.582527
head 15.5109 -1.36985 -0.868971
rclavicle -2.94201e-014 7.15625e-015
rhumerus -45.8183 20.5384 -88.496
rradius 32.6446
rwrist -9.78946
rhand -24.3196 -25.9372
rfingers 7.12502
rthumb 2.1687 -55.9059
lclavicle -2.94201e-014 7.15625e-015
lhumerus -43.0646 0.829911 82.3127
lradius 30.1771
lwrist -8.96591
lhand -28.6792 33.3375
lfingers 7.12502
lthumb -2.04185 63.3074
rfemur 6.81169 13.5135 39.4422
rtibia -12.083
rfoot -21.0112 -27.4451
rtoes -4.06491
lfemur -30.423 -25.5401 -7.87346
ltibia 8.74152
lfoot -25.1121 13.1273
ltoes -69.9869
14
root -10.4795 15.8364 2.89254 158.359 -82.0348 -149.362
lowerback 5.84302 3.02526 2.24058
upperback -10.2083 4.35059 2.26225
thorax -14.53 1.83031 0.50455
lowerneck -18.8004 -0.912245 0.630829
upperneck 34.8451 -2.35606 -0.652413
head 15.3604 -1.35948 -0.918133
rclavicle 3.80673e-014 4.6118e-014
rhumerus -45.7968 20.3969 -88.5221
rradius 32.6987
rwrist -9.71463
rhand -24.3694 -26.0957
rfingers 7.12502
rthumb 2.12063 -56.0649
lclavicle 3.80673e-014 4.6118e-014
lhumerus -42.9255 1.05307 82.0696
lradius 29.9303
lwrist -9.25499
lhand -28.4005 33.3429
lfingers 7.12502
lthumb -1.77274 63.3153
rfemur 6.90561 13.5107 39.3316
rtibia -12.1471
rfoot -21.0785 -27.391
rtoes -3.53492
lfemur -30.3 -25.5641 -8.06932
ltibia 8.66422
lfoot -25.1329 12.9896
ltoes -69.857
